# xmcd CD database file
#
# Track frame offsets:
#	150
#	9164
#	20489
#	33076
#	44389
#	56646
#	68427
#	79233
#	92403
#	103724
#	113988
#	123416
#	137720
#	148849
#	159349
#
# Disc length: 2274 seconds
#
# Revision: 0
# Processed by: cddbd v1.5.2PL0 Copyright (c) Steve Scherf et al.
# Submitted via: CDex 1.51
#
DISCID=bb08e00f
DTITLE=Patsy Cline - Collectors Edition Disc 2
DYEAR=1900
DGENRE=Country
TTITLE0=I Fall To Pieces
TTITLE1=Cry Not For Me
TTITLE2=Fingerprints
TTITLE3=Stop The World
TTITLE4=Today, Tomorrow and Forever
TTITLE5=Walkin' After Midnight
TTITLE6=I Can't Forget
TTITLE7=Life's Railway To Heaven
TTITLE8=The Heart You Break May Be Your Own
TTITLE9=Pick Me Up On Your Way Down
TTITLE10=Love Me, Love Me, Honey Do
TTITLE11=Then You'll Know
TTITLE12=Hungry For Love
TTITLE13=Gotta Lot Of Rhythm
TTITLE14=A Stranger In My Arms
EXTD=
EXTT0=
EXTT1=
EXTT2=
EXTT3=
EXTT4=
EXTT5=
EXTT6=
EXTT7=
EXTT8=
EXTT9=
EXTT10=
EXTT11=
EXTT12=
EXTT13=
EXTT14=
PLAYORDER=
